# AST/ASF file generated using VICON BodyLanguage
# -----------------------------------------------
:version 1.10
:name VICON
:units
  mass 1.0
  length 0.45
  angle deg
:documentation
   .ast/.asf automatically generated from VICON data using
   VICON BodyBuilder and BodyLanguage model FoxedUp or BRILLIANT.MOD
:root
   order TX TY TZ RX RY RZ
   axis XYZ
   position 0 0 0  
   orientation 0 0 0 
:bonedata
  begin
     id 1 
     name lhipjoint
     direction 0.690799 -0.707083 0.151096 
     length 2.54797 
     axis 0 0 0  XYZ
  end
  begin
     id 2 
     name lfemur
     direction 0.34202 -0.939693 0  
     length 7.21646  
     axis 0 0 20  XYZ
    dof rx ry rz
    limits (-160.0 20.0)
           (-70.0 70.0)
           (-60.0 70.0)
  end
  begin
     id 3 
     name ltibia
     direction 0.34202 -0.939693 0   
     length 8.16759   
     axis 0 0 20   XYZ
    dof rx
    limits (-10.0 170.0)
  end
  begin
     id 4 
     name lfoot
     direction 0.0487203 -0.133858 0.989802   
     length 1.93375   
     axis -90 7.62852e-016 20   XYZ
    dof rx rz
    limits (-45.0 90.0)
           (-70.0 20.0)
  end
  begin
     id 5 
     name ltoes
     direction 1.53453e-011 -4.21783e-011 1   
     length 0.979747   
     axis -90 7.62852e-016 20   XYZ
    dof rx
    limits (-90.0 20.0)
  end
  begin
     id 6 
     name rhipjoint
     direction -0.694693 -0.703425 0.150315   
     length 2.56122  
     axis 0 0 0  XYZ 
  end
  begin
     id 7 
     name rfemur
     direction -0.34202 -0.939693 0   
     length 7.36786   
     axis 0 0 -20   XYZ
    dof rx ry rz
    limits (-160.0 20.0)
           (-70.0 70.0)
           (-70.0 60.0)
  end
  begin
     id 8 
     name rtibia
     direction -0.34202 -0.939693 0   
     length 8.07288   
     axis 0 0 -20   XYZ
    dof rx
    limits (-10.0 170.0)
 end
 begin
     id 9 
     name rfoot
     direction -0.0428397 -0.117701 0.992125   
     length 1.88295  
     axis -90 -7.62852e-016 -20   XYZ
    dof rx rz
    limits (-45.0 90.0)
           (-20.0 70.0)
  end
  begin
     id 10 
     name rtoes
     direction -1.53456e-011 -4.2187e-011 1   
     length 0.955578   
     axis -90 -7.62852e-016 -20   XYZ
    dof rx
    limits (-90.0 20.0)
  end
  begin
     id 11 
     name lowerback
     direction 0.0288145 0.999398 -0.0193241   
     length 1.92149   
     axis 0 0 0   XYZ
    dof rx ry rz
    limits (-20.0 45.0)
           (-30.0 30.0)
           (-30.0 30.0)
  end
  begin
     id 12 
     name upperback
     direction 0.0233784 0.998099 0.0570278   
     length 1.90435   
     axis 0 0 0   XYZ
    dof rx ry rz
    limits (-20.0 45.0)
           (-30.0 30.0)
           (-30.0 30.0)
  end
  begin
     id 13 
     name thorax
     direction 0.0096694 0.997833 0.0650817   
     length 1.9111   
     axis 0 0 0   XYZ
    dof rx ry rz
    limits (-20.0 45.0)
           (-30.0 30.0)
           (-30.0 30.0)
  end
  begin
     id 14 
     name lowerneck
     direction 0.00516803 0.999916 0.0118722   
     length 1.74664   
     axis 0 0 0   XYZ
    dof rx ry rz
    limits (-20.0 45.0)
           (-30.0 30.0)
           (-30.0 30.0)
  end
  begin
     id 15 
     name upperneck
     direction -0.0510851 0.996117 -0.071696   
     length 1.68498   
     axis 0 0 0   XYZ
    dof rx ry rz
    limits (-20.0 45.0)
           (-30.0 30.0)
           (-30.0 30.0)
  end
  begin
     id 16
     name head
     direction -0.019188 0.999436 -0.0275702  
     length 1.83483  
     axis 0 0 0   XYZ
    dof rx ry rz
    limits (-20.0 45.0)
           (-30.0 30.0)
           (-30.0 30.0)
  end
  begin
     id 17 
     name lclavicle
     direction 0.967006 0.248456 -0.0562957  
     length 3.39395  
     axis 0 0 0   XYZ
    dof ry rz
    limits (-20.0 10.0)
           (0.0 20.0)
  end
  begin
     id 18 
     name lhumerus
     direction 1 -4.48962e-011 -5.62711e-019   
     length 5.24318   
     axis 180 -30 -90   XYZ
    dof rx ry rz
    limits (-60.0 90.0)
           (-90.0 90.0)
           (-90.0 90.0)
  end
  begin
     id 19
     name lradius
     direction 1 -4.48966e-011 7.90625e-027   
     length 2.98999   
     axis 180 -30 -90   XYZ
    dof rx
    limits (-10.0 170.0)
  end
  begin
     id 20
     name lwrist
     direction 1 -4.48959e-011 1.61068e-026   
     length 1.49499   
     axis -9.31229e-015 90 90   XYZ
    dof ry
    limits (-180.0 0.0)
 end
  begin
     id 21 
     name lhand
     direction 1 -4.49017e-011 3.22136e-026   
     length 0.726745   
     axis -2.0555e-014 90 90   XYZ
    dof rx rz
    limits (-90.0 90.0)
           (-45.0 45.0)
  end
  begin
     id 22 
     name lfingers
     direction 1 -4.4898e-011 6.44272e-026   
     length 0.58592   
     axis -4.11101e-014 90 90   XYZ
    dof rx
    limits (0.0 90.0)
  end
  begin
     id 23
     name lthumb
     direction 0.707107 -6.34922e-011 0.707107   
     length 0.841268   
     axis -90 45 2.85299e-015   XYZ
    dof rx rz
    limits (-45.0 45.0)
           (-45.0 45.0)
  end
  begin
     id 24 
     name rclavicle
     direction -0.972232 0.230238 0.0419005   
     length 3.40416  
     axis 0 0 0   XYZ 
    dof ry rz
    limits (-10.0 20.0)
           (-20.0 0.0)
  end
  begin
     id 25 
     name rhumerus
     direction -1 -4.48976e-011 2.48487e-027  
     length 5.37045   
     axis 180 30 90   XYZ
    dof rx ry rz
    limits (-90.0 60.0)
           (-90.0 90.0)
           (-90.0 90.0)
  end
  begin
     id 26 
     name rradius
     direction -1 -4.48942e-011 7.87951e-027   
     length 2.92792   
     axis 180 30 90   XYZ
    dof rx
    limits (-10.0 170.0)
  end
  begin
     id 27 
     name rwrist
     direction -1 -4.48969e-011 1.61068e-026   
     length 1.46396   
     axis -9.31229e-015 -90 -90   XYZ
    dof ry
    limits (-180.0 0.0)
  end
  begin
     id 28
     name rhand
     direction -1 -4.49043e-011 3.22136e-026   
     length 0.784497   
     axis -2.0555e-014 -90 -90   XYZ
    dof rx rz
    limits (-90.0 90.0)
           (-45.0 45.0)
  end
  begin
     id 29
     name rfingers
     direction -1 -4.48823e-011 6.44272e-026   
     length 0.632482   
     axis -4.11101e-014 -90 -90   XYZ
    dof rx
    limits (0.0 90.0)
  end
  begin
     id 30
     name rthumb
     direction -0.707107 -6.34923e-011 0.707107   
     length 0.908121   
     axis -90 -45 -2.85299e-015   XYZ
    dof rx rz
    limits (-45.0 45.0)
           (-45.0 45.0)
  end
:hierarchy
  begin
    root lhipjoint rhipjoint lowerback
    lhipjoint lfemur
    lfemur ltibia
    ltibia lfoot
    lfoot ltoes
    rhipjoint rfemur
    rfemur rtibia
    rtibia rfoot
    rfoot rtoes
    lowerback upperback
    upperback thorax
    thorax lowerneck lclavicle rclavicle
    lowerneck upperneck
    upperneck head
    lclavicle lhumerus
    lhumerus lradius
    lradius lwrist
    lwrist lhand lthumb
    lhand lfingers
    rclavicle rhumerus
    rhumerus rradius
    rradius rwrist
    rwrist rhand rthumb
    rhand rfingers
  end

#!OML:ASF E:\Style6\Style6.ASF
:FULLY-SPECIFIED
:DEGREES
858
root 0.193629 16.0604 0.921714 13.9873 -4.31958 -5.46646
lowerback 5.51805 -3.09216 1.54748
upperback -4.4479 -3.79145 3.32949
thorax -7.63909 -1.84989 3.09247
lowerneck -10.4364 -5.9055 0.80137
upperneck 20.9451 -7.68371 -3.30724
head 8.02336 -3.92529 -1.98231
rclavicle -2.71931e-014 5.76476e-015
rhumerus 22.1612 -56.2102 -7.91555
rradius 46.0349
rwrist 37.4639
rhand -1.01914 -0.131709
rfingers 7.12502
rthumb 24.6139 -28.5691
lclavicle -2.71931e-014 5.76476e-015
lhumerus -104.981 -51.1005 135.157
lradius 93.7361
lwrist 12.6655
lhand -1.82748 2.20144
lfingers 7.12502
lthumb 23.8389 30.7422
rfemur -43.7569 -8.94595 26.3088
rtibia 61.267
rfoot -20.2334 14.6222
rtoes 12.9312
lfemur -42.3542 13.5099 -12.9185
ltibia 65.1956
lfoot -29.4961 0.900655
ltoes -29.1574
859
root 0.193839 16.0599 0.922333 14.0033 -4.32924 -5.46964
lowerback 5.55369 -3.09764 1.50989
upperback -4.49209 -3.79936 3.33771
thorax -7.70401 -1.85072 3.12805
lowerneck -10.3247 -5.98937 0.76417
upperneck 21.0063 -7.78976 -3.32619
head 8.0219 -3.9804 -1.98997
rclavicle -4.53943e-014 -2.18663e-014
rhumerus 21.1783 -55.826 -7.92664
rradius 46.766
rwrist 37.1832
rhand -0.915814 -0.244656
rfingers 7.12502
rthumb 24.7129 -28.6685
lclavicle -4.53943e-014 -2.18663e-014
lhumerus -104.97 -50.9896 135.17
lradius 93.7041
lwrist 12.6192
lhand -1.87252 2.16301
lfingers 7.12502
lthumb 23.7957 30.7094
rfemur -43.775 -8.92651 26.3096
rtibia 61.2797
rfoot -20.2542 14.6283
rtoes 13.0671
lfemur -42.3745 13.4988 -12.9226
ltibia 65.2085
lfoot -29.48 1.01468
ltoes -29.3511
860
root 0.193399 16.0585 0.922338 14.0184 -4.32446 -5.50393
lowerback 5.57053 -3.08388 1.50818
upperback -4.51397 -3.78007 3.33453
thorax -7.73819 -1.84079 3.12583
lowerneck -10.1802 -6.08134 0.774507
upperneck 20.989 -7.91725 -3.33432
head 7.98616 -4.04138 -1.99966
rclavicle -1.79558e-014 2.81529e-014
rhumerus 20.1741 -55.5795 -7.93833
rradius 47.4892
rwrist 37.0396
rhand -0.686412 -0.222642
rfingers 7.12502
rthumb 24.9327 -28.6162
lclavicle -1.79558e-014 2.81529e-014
lhumerus -104.982 -50.9699 135.18
lradius 93.6882
lwrist 12.5977
lhand -1.8243 2.11272
lfingers 7.12502
lthumb 23.8419 30.6531
rfemur -43.7916 -8.90892 26.346
rtibia 61.2943
rfoot -20.3067 14.6292
rtoes 13.2974
lfemur -42.3963 13.4883 -12.88
ltibia 65.2258
lfoot -29.4505 0.973045
ltoes -29.1227
861
root 0.192977 16.0564 0.922069 14.0328 -4.33029 -5.43473
lowerback 5.58508 -3.07937 1.38945
upperback -4.52949 -3.78465 3.32674
thorax -7.75563 -1.83662 3.18609
lowerneck -10.1307 -6.15847 0.738732
upperneck 21.0392 -8.01672 -3.34048
head 7.99301 -4.09178 -2.00475
rclavicle 9.58825e-015 1.28465e-014
rhumerus 19.3189 -55.3741 -8.01801
rradius 48.1387
rwrist 36.8786
rhand -0.491084 -0.243715
rfingers 7.12502
rthumb 25.1199 -28.6112
lclavicle 9.58825e-015 1.28465e-014
lhumerus -104.844 -50.9216 135.064
lradius 93.7019
lwrist 12.5521
lhand -1.78884 2.16122
lfingers 7.12502
lthumb 23.8759 30.6972
rfemur -43.8314 -8.91738 26.2745
rtibia 61.3164
rfoot -20.2252 14.7434
rtoes 13.8998
lfemur -42.417 13.4594 -12.9592
ltibia 65.2282
lfoot -29.4451 1.03834
ltoes -29.2289
862
root 0.193251 16.0559 0.923843 14.0159 -4.36557 -5.42006
lowerback 5.60934 -3.08455 1.33142
upperback -4.52795 -3.79559 3.3368
thorax -7.76309 -1.83843 3.23192
lowerneck -10.1298 -6.22588 0.705856
upperneck 21.1329 -8.09648 -3.38162
head 8.02187 -4.13578 -2.02332
rclavicle -1.85895e-014 -1.16786e-014
rhumerus 18.5334 -55.1163 -8.18696
rradius 48.837
rwrist 36.6335
rhand -0.343769 -0.346695
rfingers 7.12502
rthumb 25.2611 -28.6943
lclavicle -1.85895e-014 -1.16786e-014
lhumerus -104.684 -50.8289 134.926
lradius 93.7324
lwrist 12.6028
lhand -1.77655 2.2603
lfingers 7.12502
lthumb 23.8877 30.7947
rfemur -43.8153 -8.93494 26.2612
rtibia 61.3297
rfoot -20.323 14.6023
rtoes 12.8503
lfemur -42.3718 13.47 -12.9754
ltibia 65.2268
lfoot -29.4778 1.04328
ltoes -29.1428
863
root 0.193934 16.0564 0.925751 13.9943 -4.36595 -5.43191
lowerback 5.61812 -3.0749 1.32855
upperback -4.51807 -3.78338 3.32825
thorax -7.75841 -1.83256 3.22308
lowerneck -10.0922 -6.32965 0.670753
upperneck 21.2255 -8.23418 -3.38486
head 8.04432 -4.20369 -2.03302
rclavicle 6.39434e-014 -1.74931e-014
rhumerus 17.4957 -54.7908 -8.14046
rradius 49.5317
rwrist 36.2085
rhand -0.4626 -0.512733
rfingers 7.12502
rthumb 25.1472 -28.8764
lclavicle 6.39434e-014 -1.74931e-014
lhumerus -104.705 -50.8337 134.978
lradius 93.7077
lwrist 12.6313
lhand -1.82507 2.30187
lfingers 7.12502
lthumb 23.8412 30.8423
rfemur -43.7803 -8.97184 26.272
rtibia 61.3318
rfoot -20.3943 14.5761
rtoes 12.3506
lfemur -42.3258 13.4786 -12.963
ltibia 65.2146
lfoot -29.4784 1.03154
ltoes -29.1109
864
root 0.194036 16.0573 0.926855 13.9748 -4.3597 -5.41148
lowerback 5.65392 -3.07185 1.25494
upperback -4.51072 -3.78543 3.32397
thorax -7.76657 -1.82952 3.26187
lowerneck -10.017 -6.43029 0.671358
upperneck 21.2348 -8.37585 -3.37668
head 8.03095 -4.27019 -2.0406
rclavicle 5.56473e-014 -4.37823e-014
rhumerus 16.6037 -54.5506 -8.2728
rradius 50.2598
rwrist 35.8835
rhand -0.474983 -0.757771
rfingers 7.12502
rthumb 25.1353 -29.1231
lclavicle 5.56473e-014 -4.37823e-014
lhumerus -104.667 -50.8277 134.967
lradius 93.6763
lwrist 12.624
lhand -1.84454 2.26709
lfingers 7.12502
lthumb 23.8225 30.81
rfemur -43.7482 -9.00325 26.2432
rtibia 61.3338
rfoot -20.3279 14.6971
rtoes 13.0662
lfemur -42.2936 13.4572 -12.9794
ltibia 65.2009
lfoot -29.4862 1.08896
ltoes -29.14
865
root 0.193579 16.0601 0.928497 13.9474 -4.34861 -5.35718
lowerback 5.70849 -3.07486 1.13634
upperback -4.50169 -3.79901 3.32467
thorax -7.78 -1.82946 3.3336
lowerneck -10.0192 -6.52616 0.72247
upperneck 21.2939 -8.50701 -3.43335
head 8.04273 -4.33375 -2.08119
rclavicle 3.91357e-016 1.8487e-014
rhumerus 15.843 -54.4815 -8.56788
rradius 51.1038
rwrist 35.8061
rhand -0.202834 -0.918318
rfingers 7.12502
rthumb 25.3961 -29.2468
lclavicle 3.91357e-016 1.8487e-014
lhumerus -104.513 -50.7793 134.853
lradius 93.6321
lwrist 12.5556
lhand -1.75873 2.20019
lfingers 7.12502
lthumb 23.9048 30.7323
rfemur -43.7061 -9.04715 26.1789
rtibia 61.3379
rfoot -20.2762 14.831
rtoes 13.7137
lfemur -42.2461 13.4159 -13.0243
ltibia 65.1798
lfoot -29.5185 0.882355
ltoes -28.6018
866
root 0.19215 16.0584 0.929338 13.9457 -4.32987 -5.29332
lowerback 5.77942 -3.07794 1.01261
upperback -4.52845 -3.81144 3.33402
thorax -7.84069 -1.8275 3.42049
lowerneck -9.97064 -6.60352 0.694508
upperneck 21.336 -8.60194 -3.46958
head 8.04533 -4.38443 -2.09655
rclavicle -1.54058e-015 3.52843e-015
rhumerus 15.0258 -54.3509 -8.78122
rradius 51.9575
rwrist 35.6156
rhand -0.0328624 -0.959605
rfingers 7.12502
rthumb 25.5589 -29.2649
lclavicle -1.54058e-015 3.52843e-015
lhumerus -104.448 -50.7155 134.824
lradius 93.6385
lwrist 12.5457
lhand -1.76659 2.17967
lfingers 7.12502
lthumb 23.8972 30.7128
rfemur -43.7235 -9.10071 26.1239
rtibia 61.3658
rfoot -20.3071 14.8685
rtoes 13.7326
lfemur -42.2567 13.403 -13.089
ltibia 65.1751
lfoot -29.518 0.825516
ltoes -28.5617
867
root 0.190668 16.0565 0.929351 13.9539 -4.34253 -5.25074
lowerback 5.79052 -3.0651 0.911794
upperback -4.52152 -3.8023 3.35298
thorax -7.8321 -1.81707 3.49596
lowerneck -9.90429 -6.69709 0.586986
upperneck 21.3033 -8.71696 -3.44312
head 8.0265 -4.44494 -2.07742
rclavicle -5.43272e-014 4.4975e-015
rhumerus 14.2284 -54.2242 -8.98018
rradius 52.7721
rwrist 35.124
rhand 0.0304593 -0.896366
rfingers 7.12502
rthumb 25.6195 -29.1929
lclavicle -5.43272e-014 4.4975e-015
lhumerus -104.296 -50.6936 134.754
lradius 93.6392
lwrist 12.535
lhand -1.67992 2.15653
lfingers 7.12502
lthumb 23.9804 30.6788
rfemur -43.7659 -9.10361 26.0907
rtibia 61.4082
rfoot -20.4109 14.7712
rtoes 12.8904
lfemur -42.2725 13.4057 -13.13
ltibia 65.1731
lfoot -29.5204 0.769329
ltoes -28.4196
868
root 0.188574 16.055 0.929559 13.9859 -4.3624 -5.1621
lowerback 5.72648 -3.06755 0.743015
upperback -4.51008 -3.82219 3.37505
thorax -7.76867 -1.81823 3.61041
lowerneck -9.80448 -6.77364 0.486009
upperneck 21.2145 -8.80612 -3.43098
head 7.98255 -4.49457 -2.05811
rclavicle 2.46431e-014 2.38293e-014
rhumerus 13.5463 -54.1453 -9.29172
rradius 53.6242
rwrist 35.0057
rhand 0.290618 -0.751767
rfingers 7.12502
rthumb 25.8687 -29.0122
lclavicle 2.46431e-014 2.38293e-014
lhumerus -104.093 -50.6159 134.6
lradius 93.6771
lwrist 12.5013
lhand -1.54222 2.1847
lfingers 7.12502
lthumb 24.1124 30.6895
rfemur -43.8443 -9.10886 26.0115
rtibia 61.4609
rfoot -20.5452 14.6171
rtoes 11.815
lfemur -42.3045 13.3848 -13.2365
ltibia 65.1679
lfoot -29.5199 0.86996
ltoes -28.5677
869
root 0.186005 16.0529 0.928646 14.0162 -4.32683 -5.12392
lowerback 5.72196 -3.07728 0.641705
upperback -4.53681 -3.84339 3.39044
thorax -7.78591 -1.82238 3.68692
lowerneck -9.65363 -6.85875 0.440702
upperneck 21.156 -8.91488 -3.43439
head 7.93558 -4.55084 -2.05305
rclavicle 3.14639e-014 -5.59082e-015
rhumerus 12.7343 -54.0883 -9.48884
rradius 54.4936
rwrist 35.1759
rhand 0.674454 -0.544602
rfingers 7.12502
rthumb 26.2362 -28.7509
lclavicle 3.14639e-014 -5.59082e-015
lhumerus -104.053 -50.5359 134.564
lradius 93.6786
lwrist 12.5017
lhand -1.45899 2.18783
lfingers 7.12502
lthumb 24.1922 30.682
rfemur -43.9065 -9.13312 25.9927
rtibia 61.5024
rfoot -20.5033 14.6902
rtoes 12.4295
lfemur -42.3631 13.348 -13.2706
ltibia 65.1785
lfoot -29.5002 0.7475
ltoes -28.137
870
root 0.183215 16.0503 0.929679 14.0206 -4.29385 -5.13638
lowerback 5.76855 -3.08053 0.584675
upperback -4.56237 -3.84996 3.41283
thorax -7.835 -1.82082 3.7481
lowerneck -9.514 -6.94306 0.397728
upperneck 21.0956 -9.0289 -3.41025
head 7.89136 -4.60673 -2.04025
rclavicle 2.79883e-014 -3.80176e-015
rhumerus 11.9796 -54.0625 -9.7566
rradius 55.3649
rwrist 35.4824
rhand 1.05955 -0.385838
rfingers 7.12502
rthumb 26.6048 -28.5368
lclavicle 2.79883e-014 -3.80176e-015
lhumerus -104.127 -50.4701 134.627
lradius 93.7013
lwrist 12.5417
lhand -1.48013 2.2683
lfingers 7.12502
lthumb 24.1719 30.7652
rfemur -43.9172 -9.13927 26.0152
rtibia 61.5309
rfoot -20.4761 14.7534
rtoes 13.097
lfemur -42.3836 13.368 -13.2452
ltibia 65.1972
lfoot -29.5164 0.733852
ltoes -28.2819
871
root 0.180364 16.0491 0.93069 14.0648 -4.25009 -5.21155
lowerback 5.73587 -3.07478 0.625358
upperback -4.54622 -3.83794 3.43663
thorax -7.8004 -1.81717 3.74582
lowerneck -9.5178 -7.03982 0.366603
upperneck 21.0659 -9.16136 -3.38821
head 7.88216 -4.66992 -2.03916
rclavicle 2.95071e-015 -8.02593e-015
rhumerus 11.2192 -54.1102 -10.0059
rradius 56.1946
rwrist 35.7584
rhand 1.3677 -0.356272
rfingers 7.12502
rthumb 26.8997 -28.4622
lclavicle 2.95071e-015 -8.02593e-015
lhumerus -104.089 -50.4945 134.61
lradius 93.7315
lwrist 12.5353
lhand -1.54037 2.34874
lfingers 7.12502
lthumb 24.1142 30.8533
rfemur -43.959 -9.14177 26.1235
rtibia 61.5403
rfoot -20.4938 14.7064
rtoes 13.0373
lfemur -42.4524 13.3903 -13.155
ltibia 65.2296
lfoot -29.5242 0.805178
ltoes -28.7509
872
root 0.177563 16.0468 0.929276 14.1048 -4.19391 -5.25271
lowerback 5.70435 -3.06453 0.628122
upperback -4.51262 -3.82416 3.45505
thorax -7.74556 -1.81111 3.75785
lowerneck -9.62584 -7.15204 0.392009
upperneck 21.1112 -9.30794 -3.45057
head 7.90884 -4.74289 -2.08285
rclavicle -5.46689e-014 -1.78658e-014
rhumerus 10.3929 -54.1295 -10.1677
rradius 57.024
rwrist 35.688
rhand 1.41837 -0.392577
rfingers 7.12502
rthumb 26.9482 -28.491
lclavicle -5.46689e-014 -1.78658e-014
lhumerus -103.959 -50.5605 134.547
lradius 93.721
lwrist 12.5198
lhand -1.49302 2.34132
lfingers 7.12502
lthumb 24.1596 30.8399
rfemur -44.0112 -9.16895 26.2009
rtibia 61.5507
rfoot -20.5039 14.7101
rtoes 12.9604
lfemur -42.5388 13.3863 -13.1039
ltibia 65.2702
lfoot -29.5295 0.87799
ltoes -29.0952
